Coordinates
version=1
nRows=11
nColumns=42
inDegrees=yes

Units are S.I. units (second, meters, Newtons, ...)
If the header above contains a line with 'inDegrees', this indicates whether rotational values are in degrees (yes) or radians (no).

endheader
time	pelvis_tilt	pelvis_list	pelvis_rotation	pelvis_tx	pelvis_ty	pelvis_tz	hip_flexion_r	hip_adduction_r	hip_rotation_r	knee_angle_r	knee_adduction_r	knee_angle_r_beta	ankle_angle_r	subtalar_angle_r	mtp_angle_r	hip_flexion_l	hip_adduction_l	hip_rotation_l	knee_angle_l	knee_adduction_l	knee_angle_l_beta	ankle_angle_l	subtalar_angle_l	mtp_angle_l	lumbar_extension	lumbar_bending	lumbar_rotation	arm_flex_r	arm_add_r	arm_rot_r	elbow_flex_r	pro_sup_r	wrist_flex_r	wrist_dev_r	arm_flex_l	arm_add_l	arm_rot_l	elbow_flex_l	pro_sup_l	wrist_flex_l	wrist_dev_l
      1.13000000	     11.68786245	      3.78350347	      4.30218087	     -0.75106151	      0.92289280	     -0.17078652	     22.07945806	     -5.56037487	    -18.98387356	     51.51785030	     -9.96451579	      0.89915611	     16.97155055	      2.95696732	     -7.57126377	     -7.43063830	     10.50496529	    -16.20026193	     24.78019354	    -13.35840644	      0.43249597	     25.73937249	     16.36628422	     -7.57126377	    -34.60388821	     -2.53735028	     -7.13049221	     -9.22897341	     -4.38576876	      2.51487096	     28.79914697	     90.00000001	      0.00000000	      0.00000000	     27.10416031	    -20.77662674	      1.41867874	     42.50031995	     90.00000001	      0.00000000	      0.00000000
      1.14000000	     12.02330281	      3.93063107	      4.42717900	     -0.74197703	      0.92236257	     -0.17072210	     22.27585797	     -6.23835427	    -23.02516286	     49.23462853	    -11.76786838	      0.85930637	     16.42120360	      9.94372740	     -7.56495418	     -8.67280474	     10.40208784	    -16.67747003	     24.29729213	    -13.34888755	      0.42406775	     26.32147763	     18.10883937	     -7.56495418	    -34.84808183	     -2.56967730	     -7.31867180	    -10.02087170	     -4.36660564	      2.85862020	     29.24369637	     90.00000001	      0.00000000	      0.00000000	     27.67065093	    -21.36930465	      1.96824784	     43.33909453	     90.00000001	      0.00000000	      0.00000000
      1.15000000	     12.08138824	      4.07924359	      4.51503615	     -0.73320714	      0.92147135	     -0.17061391	     22.60756523	     -6.71358717	    -25.21907185	     46.96905772	    -12.27119200	      0.81976470	     15.45970628	     13.75888409	     -7.56016226	     -9.54299043	     10.43398024	    -16.79728177	     23.95214056	    -13.39206033	      0.41804372	     26.62028034	     18.92283921	     -7.56016226	    -34.82753380	     -2.63738323	     -7.50695676	    -10.63237566	     -4.38364180	      2.97825630	     29.40136837	     90.00000001	      0.00000000	      0.00000000	     28.30799413	    -21.83805000	      2.19635333	     43.89654294	     90.00000001	      0.00000000	      0.00000000
      1.16000000	     12.18176557	      4.26420927	      4.61352120	     -0.72436109	      0.92055784	     -0.17048487	     22.83292573	     -7.32333818	    -27.57931278	     44.87199878	    -12.60615477	      0.78316412	     14.35198638	     17.91867412	     -7.55590765	    -10.45096088	     10.45979103	    -16.92544509	     23.65529356	    -13.38741661	      0.41286276	     26.93893488	     19.73640649	     -7.55590765	    -34.85890435	     -2.72596603	     -7.61678470	    -11.15733930	     -4.24718231	      3.02511275	     29.51272780	     90.00000001	      0.00000000	      0.00000000	     28.90797388	    -22.20981597	      2.44609527	     44.44918499	     90.00000001	      0.00000000	      0.00000000
      1.17000000	     12.22837780	      4.43131568	      4.69215319	     -0.71556048	      0.91951120	     -0.17026887	     23.08163968	     -7.88339621	    -30.05424793	     42.85466864	    -13.01175141	      0.74795507	     13.25429739	     22.46911877	     -7.55196660	    -11.24801374	     10.47146045	    -17.06418401	     23.45521532	    -13.44371979	      0.40937073	     27.24247095	     20.56527364	     -7.55196660	    -34.84731164	     -2.82215072	     -7.71816600	    -11.60687479	     -4.19406083	      2.98104138	     29.56280580	     90.00000001	      0.00000000	      0.00000000	     29.50943114	    -22.61116103	      2.71583374	     44.98426632	     90.00000001	      0.00000000	      0.00000000
      1.18000000	     12.23883029	      4.59249832	      4.77182826	     -0.70670761	      0.91842683	     -0.16997773	     23.28037426	     -8.42822954	    -32.40258572	     40.98920978	    -13.22724510	      0.71539667	     12.17612380	     26.67337034	     -7.54862422	    -11.97036849	     10.45679165	    -17.18088676	     23.31852193	    -13.47273894	      0.40698498	     27.52180114	     21.28886264	     -7.54862422	    -34.79777801	     -2.92271838	     -7.79190079	    -11.98283316	     -4.09799792	      2.89020768	     29.53910570	     90.00000001	      0.00000000	      0.00000000	     30.05722278	    -22.94333880	      2.96845766	     45.46655595	     90.00000001	      0.00000000	      0.00000000
      1.19000000	     12.24126262	      4.66406239	      4.81552536	     -0.69793087	      0.91744449	     -0.16956012	     23.26998206	     -8.62864548	    -33.42236688	     39.14266532	    -12.65478053	      0.68316839	     11.52800497	     28.18382953	     -7.54763634	    -12.68554830	     10.34231339	    -17.03183525	     23.24154593	    -13.36677601	      0.40564150	     27.76777008	     21.59050366	     -7.54763634	    -34.75761222	     -2.93738432	     -7.78126085	    -12.24084160	     -4.06684696	      2.84662818	     29.45500099	     90.00000001	      0.00000000	      0.00000000	     30.61478431	    -23.16191641	      3.02003616	     45.82256809	     90.00000001	      0.00000000	      0.00000000
      1.20000000	     12.20841632	      4.86648979	      4.87126358	     -0.68904156	      0.91624366	     -0.16917558	     23.45880743	     -9.26217317	    -36.07928688	     37.69554315	    -12.98252412	      0.65791134	     10.35427471	     32.88856086	     -7.54589372	    -13.27856143	     10.38129115	    -17.18793665	     23.26950438	    -13.50186364	      0.40612947	     27.97433183	     22.36262506	     -7.54589372	    -34.69797049	     -3.09383954	     -7.81041065	    -12.41429694	     -3.95121183	      2.65471371	     29.31958814	     90.00000001	      0.00000000	      0.00000000	     31.06943917	    -23.47941700	      3.34082436	     46.35107923	     90.00000001	      0.00000000	      0.00000000
      1.21000000	     12.07141501	      5.00641345	      4.88367331	     -0.68017796	      0.91502551	     -0.16867867	     23.58163046	     -9.56873567	    -37.28940424	     36.39434720	    -12.60777605	      0.63520119	     10.02048888	     34.87640234	     -7.54381441	    -13.73152633	     10.38934350	    -17.12227322	     23.37098062	    -13.57072365	      0.40790056	     28.09136023	     22.71827905	     -7.54381441	    -34.53137704	     -3.20331917	     -7.77876053	    -12.56818853	     -3.90459266	      2.42172743	     29.23733668	     90.00000001	      0.00000000	      0.00000000	     31.44204349	    -23.74595921	      3.59350242	     46.82286204	     90.00000001	      0.00000000	      0.00000000
      1.22000000	     11.83803826	      5.20138072	      4.76063474	     -0.67129598	      0.91361890	     -0.16815221	     23.84899734	     -9.90030260	    -37.75414424	     35.64117953	    -11.87736561	      0.62205593	     10.12797535	     34.95872071	     -7.54373320	    -14.06510350	     10.52275992	    -17.11300885	     23.50080918	    -13.61181046	      0.41016650	     28.11013656	     22.76659216	     -7.54373320	    -34.25459768	     -3.40376126	     -7.66489124	    -12.62712548	     -3.97579311	      2.39963316	     29.19603741	     90.00000001	      0.00000000	      0.00000000	     31.78731158	    -23.92558403	      3.54634497	     46.96872161	     90.00000001	      0.00000000	      0.00000000
      1.23000000	     11.84475069	      5.18118957	      4.90196835	     -0.66223069	      0.91293875	     -0.16748563	     23.43646378	     -9.76881541	    -38.33208269	     34.22173737	    -11.33809564	      0.59728199	     10.10410912	     35.85058522	     -7.54309548	    -14.67142911	     10.26439315	    -16.65981839	     23.70273406	    -13.55222520	      0.41369075	     28.21021496	     23.00496257	     -7.54309548	    -34.25399310	     -3.31398940	     -7.61331388	    -12.58261422	     -3.90589990	      2.29879065	     28.97492878	     90.00000001	      0.00000000	      0.00000000	     32.11766347	    -24.00139752	      3.67965015	     47.39558989	     90.00000001	      0.00000000	      0.00000000
